<svg width="80" height="80" viewBox="0 0 80 80" fill="none" xmlns="http://www.w3.org/2000/svg">
<path d="M44.6875 22.3438H42.488L42.211 21.5633C41.8791 20.6283 40.9911 20 40 20C39.0089 20 38.1209 20.6283 37.789 21.5633L37.512 22.3438H35.3125C34.018 22.3438 32.9688 23.393 32.9688 24.6875V25.8594C32.9688 26.5066 33.4934 27.0312 34.1406 27.0312H45.8594C46.5066 27.0312 47.0312 26.5066 47.0312 25.8594V24.6875C47.0312 23.393 45.982 22.3438 44.6875 22.3438Z" fill="#F50A45"/>
<path d="M51.7188 24.6875H49.375V25.8594C49.375 27.798 47.798 29.375 45.8594 29.375H34.1406C32.202 29.375 30.625 27.798 30.625 25.8594V24.6875H28.2812C26.3427 24.6875 24.7656 26.2645 24.7656 28.2031V56.3281C24.7656 58.2667 26.3427 60 28.2812 60H51.7188C53.6573 60 55.2344 58.2667 55.2344 56.3281V28.2031C55.2344 26.2645 53.6573 24.6875 51.7188 24.6875ZM38.4848 50.1254L33.7973 54.8129C33.5684 55.0418 33.2685 55.1562 32.9688 55.1562C32.669 55.1562 32.3691 55.0418 32.1402 54.8129L29.7965 52.4691C29.3387 52.0114 29.3387 51.2698 29.7965 50.812C30.2542 50.3543 30.9959 50.3543 31.4536 50.812L32.9688 52.3273L36.8277 48.4683C37.2855 48.0105 38.0271 48.0105 38.4848 48.4683C38.9426 48.926 38.9426 49.6677 38.4848 50.1254ZM38.4848 41.9223L33.7973 46.6098C33.5684 46.8387 33.2685 46.9531 32.9688 46.9531C32.669 46.9531 32.3691 46.8387 32.1402 46.6098L29.7965 44.266C29.3387 43.8083 29.3387 43.0666 29.7965 42.6089C30.2542 42.1512 30.9959 42.1512 31.4536 42.6089L32.9688 44.1241L36.8277 40.2652C37.2855 39.8074 38.0271 39.8074 38.4848 40.2652C38.9426 40.7229 38.9426 41.4645 38.4848 41.9223ZM38.4848 33.7191L33.7973 38.4066C33.5684 38.6355 33.2685 38.75 32.9688 38.75C32.669 38.75 32.3691 38.6355 32.1402 38.4066L29.7965 36.0629C29.3387 35.6052 29.3387 34.8635 29.7965 34.4058C30.2542 33.948 30.9959 33.948 31.4536 34.4058L32.9688 35.921L36.8277 32.062C37.2855 31.6043 38.0271 31.6043 38.4848 32.062C38.9426 32.5198 38.9426 33.2614 38.4848 33.7191ZM49.375 52.8125H42.3438C41.696 52.8125 41.1719 52.2884 41.1719 51.6406C41.1719 50.9929 41.696 50.4688 42.3438 50.4688H49.375C50.0227 50.4688 50.5469 50.9929 50.5469 51.6406C50.5469 52.2884 50.0227 52.8125 49.375 52.8125ZM49.375 44.6094H42.3438C41.696 44.6094 41.1719 44.0852 41.1719 43.4375C41.1719 42.7898 41.696 42.2656 42.3438 42.2656H49.375C50.0227 42.2656 50.5469 42.7898 50.5469 43.4375C50.5469 44.0852 50.0227 44.6094 49.375 44.6094ZM49.375 36.4062H42.3438C41.696 36.4062 41.1719 35.8821 41.1719 35.2344C41.1719 34.5866 41.696 34.0625 42.3438 34.0625H49.375C50.0227 34.0625 50.5469 34.5866 50.5469 35.2344C50.5469 35.8821 50.0227 36.4062 49.375 36.4062Z" fill="#F50A45"/>
<circle cx="40" cy="40" r="39" stroke="#F50A45" stroke-width="2"/>
</svg>
