<svg width="38" height="38" viewBox="0 0 38 38" fill="none" xmlns="http://www.w3.org/2000/svg">
<g clip-path="url(#clip0_1315_897)">
<path d="M37.9722 17.6251C37.9722 17.1498 37.5869 16.7644 37.1115 16.7644H28.7602L35.3078 9.23257C36.5301 7.81159 36.369 5.66881 34.9481 4.44642C33.5271 3.22415 31.3843 3.38523 30.1619 4.80621C30.1342 4.83831 30.1072 4.87101 30.0807 4.90421L20.733 16.7644H18.5737C18.3155 15.3149 16.9312 14.3491 15.4816 14.6074C14.3816 14.8034 13.5206 15.6644 13.3246 16.7644H9.67317C10.2006 15.3889 9.51307 13.8463 8.13759 13.3188C6.7621 12.7913 5.21951 13.4789 4.69212 14.8544C4.4564 15.4692 4.4564 16.1496 4.69212 16.7644H0.890052C0.414671 16.7644 0.0293002 17.1498 0.0293002 17.6251C0.0256113 23.8153 3.05042 29.6158 8.12824 33.1561V35.7629C8.12959 36.9979 9.13028 37.9985 10.3652 37.9999H27.5163C28.7513 37.9985 29.7519 36.9979 29.7533 35.7629V33.2412C34.9022 29.7112 37.9775 23.8679 37.9722 17.6251ZM31.4305 5.9681C32.0062 5.24593 33.0585 5.12727 33.7806 5.70299C34.5028 6.27871 34.6215 7.33092 34.0457 8.05309C34.0326 8.06957 34.0192 8.0858 34.0054 8.10179L26.479 16.7644H22.9253L31.4305 5.9681ZM15.9517 16.2873C16.291 16.2875 16.6042 16.4697 16.7722 16.7644H15.1274C15.2968 16.4692 15.6113 16.287 15.9517 16.2873ZM6.23705 15.819C6.2368 15.2967 6.66004 14.873 7.1824 14.8727C7.70475 14.8725 8.12849 15.2957 8.12873 15.8181C8.12898 16.3404 7.70574 16.7641 7.18338 16.7644C7.18326 16.7644 7.18301 16.7644 7.18289 16.7644C6.66103 16.7635 6.23815 16.3409 6.23705 15.819ZM36.2291 18.4859C36.181 19.358 36.0699 20.2254 35.8966 21.0814L35.8848 21.1419H2.1197C2.11527 21.1223 2.11183 21.1021 2.1074 21.0819C1.93402 20.2257 1.82299 19.3581 1.77491 18.4859H36.2291ZM28.0318 35.7605C28.0315 36.045 27.8009 36.2757 27.5163 36.2759H10.3652C10.0807 36.2757 9.84999 36.045 9.84975 35.7605V33.6696H28.0318V35.7605ZM28.6092 31.9481H9.39379C6.15786 29.7781 3.75255 26.5759 2.57024 22.8634H35.4333C34.252 26.5765 31.8461 29.7791 28.6092 31.9481Z" fill="#F50A45"/>
<path d="M10.1083 5.3347C11.5814 5.33494 12.7759 4.14096 12.7761 2.66784C12.7763 1.19472 11.5824 0.000245967 10.1092 3.79843e-08C8.63613 -0.000245891 7.44165 1.19374 7.44141 2.66686V2.66932C7.44387 4.14096 8.63662 5.3331 10.1083 5.3347ZM10.1083 1.722C10.6306 1.72175 11.0544 2.14499 11.0546 2.66735C11.0548 3.1897 10.6316 3.61344 10.1092 3.61368C9.58726 3.61393 9.16377 3.1913 9.16291 2.66932C9.16242 2.14672 9.58566 1.72249 10.1083 1.722Z" fill="#F50A45"/>
<path d="M17.7567 11.2361C19.2296 11.2361 20.4236 10.0421 20.4236 8.5692C20.4236 7.09633 19.2296 5.90234 17.7567 5.90234C16.2838 5.90234 15.0898 7.09633 15.0898 8.5692V8.57166C15.0928 10.0429 16.2854 11.2345 17.7567 11.2361ZM17.7567 7.62385C18.2788 7.62385 18.7021 8.04709 18.7021 8.5692C18.7021 9.09131 18.2788 9.51455 17.7567 9.51455C17.2356 9.51455 16.8127 9.09278 16.8113 8.57166C16.8105 8.04906 17.2336 7.62471 17.7562 7.62385H17.7567Z" fill="#F50A45"/>
</g>
<defs>
<clipPath id="clip0_1315_897">
<rect width="38" height="38" fill="white"/>
</clipPath>
</defs>
</svg>
