<svg width="24" height="24" viewBox="0 0 24 24" fill="none" xmlns="http://www.w3.org/2000/svg">
<g clip-path="url(#clip0_811_777)">
<path d="M0.21141 4.76807L7.49011 11.9999L0.21141 19.2317C0.0798316 18.9567 2.86102e-06 18.6527 2.86102e-06 18.328V5.67177C2.86102e-06 5.34707 0.0798316 5.04308 0.21141 4.76807Z" fill="white"/>
<path d="M2.10936 3.5625H21.8906C22.2153 3.5625 22.5193 3.64233 22.7943 3.77391L13.4914 13.03C12.6688 13.8525 11.3312 13.8525 10.5086 13.03L1.20566 3.77391C1.48067 3.64233 1.78466 3.5625 2.10936 3.5625Z" fill="white"/>
<path d="M23.7886 4.76807C23.9202 5.04308 24 5.34707 24 5.67177V18.328C24 18.6527 23.9202 18.9568 23.7886 19.2317L16.5099 11.9999L23.7886 4.76807Z" fill="white"/>
<path d="M8.48436 12.9944L9.51434 14.0244C10.8849 15.3949 13.1151 15.3949 14.4857 14.0244L15.5156 12.9944L22.7943 20.2262C22.5193 20.3578 22.2153 20.4376 21.8906 20.4376H2.10936C1.78466 20.4376 1.48067 20.3578 1.20566 20.2262L8.48436 12.9944Z" fill="white"/>
</g>
<defs>
<clipPath id="clip0_811_777">
<rect width="24" height="24" fill="white" transform="matrix(-1 0 0 1 24 0)"/>
</clipPath>
</defs>
</svg>
