<svg width="22" height="22" viewBox="0 0 22 22" fill="none" xmlns="http://www.w3.org/2000/svg">
<path d="M16.7172 0.326691C16.6027 0.124609 16.3887 0 16.1564 0H8.42204C8.1262 0 7.86878 0.201437 7.79702 0.488426L5.21889 10.8439C5.17043 11.0365 5.21387 11.2405 5.33598 11.3965C5.4581 11.5532 5.64566 11.6445 5.84392 11.6445H8.78083L5.24034 21.1289C5.12703 21.431 5.25482 21.7702 5.53867 21.9232C5.82381 22.076 6.17658 21.9942 6.36509 21.7343L16.6776 7.51167C16.8205 7.3159 16.8406 7.05659 16.7311 6.84007C16.621 6.62419 16.3988 6.48824 16.1564 6.48824H13.4279L16.709 0.976207C16.8287 0.776703 16.8318 0.52873 16.7172 0.326691Z" fill="#1A202C"/>
</svg>
