<svg width="28" height="28" viewBox="0 0 28 28" fill="none" xmlns="http://www.w3.org/2000/svg">
<path d="M14 4.8125C8.08497 4.8125 2.62497 8.26 0.0875098 13.6062C-0.0262402 13.86 -0.0262402 14.1575 0.0875098 14.4025C2.63373 19.74 8.09373 23.1875 14 23.1875C19.9062 23.1875 25.3662 19.74 27.9125 14.4025C28.0262 14.1575 28.0262 13.86 27.9125 13.6062C25.375 8.26 19.915 4.8125 14 4.8125ZM14 19.5475C10.9462 19.5475 8.4525 17.0537 8.4525 14C8.4525 10.9463 10.9462 8.45247 14 8.45247C17.0537 8.45247 19.5475 10.9463 19.5475 14C19.5475 17.0537 17.0537 19.5475 14 19.5475Z" fill="white"/>
<path d="M14 17.675C16.0296 17.675 17.675 16.0297 17.675 14C17.675 11.9704 16.0296 10.325 14 10.325C11.9703 10.325 10.325 11.9704 10.325 14C10.325 16.0297 11.9703 17.675 14 17.675Z" fill="white"/>
</svg>
