<svg width="23" height="23" viewBox="0 0 23 23" fill="none" xmlns="http://www.w3.org/2000/svg">
<path d="M11.5156 13.6186C11.6083 13.7383 11.6941 13.8573 11.7712 13.9745C12.3577 14.083 12.9274 14.2683 13.4655 14.5257C13.4884 14.505 13.5149 14.4809 13.5451 14.4533C13.2058 13.8653 12.8228 13.3036 12.3993 12.7729C12.0524 13.1085 11.7532 13.3938 11.5156 13.6186Z" fill="#1A202C"/>
<path d="M14.8856 13.1741C14.5722 12.5569 14.1976 11.9727 13.7675 11.4302C13.3817 11.8145 13.0206 12.1694 12.6934 12.4878C13.1187 13.0207 13.5052 13.5835 13.8497 14.1719C14.1118 13.9272 14.4678 13.5881 14.8856 13.1741Z" fill="#1A202C"/>
<path d="M16.2359 11.7876C15.8668 11.2195 15.4653 10.6732 15.0334 10.1514C14.6978 10.4957 14.3713 10.8265 14.0586 11.1401C14.4883 11.6814 14.8661 12.2619 15.1871 12.874C15.5116 12.5473 15.8652 12.1829 16.2359 11.7876Z" fill="#1A202C"/>
<path d="M14.7707 9.84118C14.3085 9.30658 13.8159 8.79895 13.2954 8.3208C12.9705 8.6494 12.6518 8.97558 12.3418 9.29583C12.8612 9.77306 13.3492 10.2834 13.8026 10.8238C14.1133 10.5119 14.4375 10.1832 14.7707 9.84118Z" fill="#1A202C"/>
<path d="M13.5114 11.1142C13.0599 10.5755 12.5737 10.0668 12.056 9.59131C11.6972 9.96416 11.3518 10.3273 11.0234 10.6755C11.523 11.147 11.9947 11.6473 12.4361 12.1737C12.764 11.8543 13.1256 11.4988 13.5114 11.1142Z" fill="#1A202C"/>
<path d="M18.3042 3.63672C17.9847 3.90297 17.6592 4.18283 17.3301 4.47321C17.3791 4.51427 17.4285 4.5561 17.4783 4.59872C17.8739 4.93553 18.2484 5.29644 18.5995 5.67941C18.8907 5.34025 19.1622 5.01751 19.4141 4.7112C19.0684 4.32877 18.6976 3.96981 18.3042 3.63672Z" fill="#1A202C"/>
<path d="M19.5386 7.82558C19.3266 7.29177 18.9896 6.7762 18.598 6.2998C18.325 6.61363 18.0351 6.94084 17.7285 7.28144C18.1222 7.76168 18.4842 8.26702 18.8122 8.79427C19.0596 8.47663 19.3027 8.15315 19.5386 7.82558Z" fill="#1A202C"/>
<path d="M18.5456 9.13201C18.2171 8.59229 17.8518 8.07587 17.4523 7.58643C17.1498 7.91909 16.8311 8.26419 16.4961 8.62174C16.9379 9.09967 17.3403 9.61263 17.6992 10.1556C17.9821 9.82443 18.2656 9.48253 18.5456 9.13201Z" fill="#1A202C"/>
<path d="M17.4236 10.4752C17.1016 9.95835 16.6779 9.42792 16.2168 8.91846C15.9293 9.22267 15.6298 9.53576 15.3184 9.85773C15.7483 10.3769 16.1492 10.9194 16.5193 11.4827C16.8143 11.1631 17.1175 10.8264 17.4236 10.4752Z" fill="#1A202C"/>
<path d="M17.1887 7.27429C16.7571 6.77576 16.2902 6.30894 15.7916 5.87744C15.4383 6.21018 15.0849 6.54916 14.7344 6.89065C14.7989 6.94839 14.8641 7.00733 14.9301 7.06747C15.4072 7.50225 15.8367 7.92152 16.2188 8.32528C16.5593 7.96183 16.8826 7.6115 17.1887 7.27429Z" fill="#1A202C"/>
<path d="M9.94885 13.805C10.1811 13.8059 10.432 13.8143 10.6953 13.8337C10.7508 13.7822 10.8417 13.6975 10.9638 13.583C10.537 13.0971 10.0788 12.6397 9.59213 12.2139C9.31191 12.5193 9.05886 12.7971 8.83789 13.0413C9.08578 13.2842 9.31974 13.541 9.53867 13.8103C9.67124 13.8064 9.80789 13.8043 9.94885 13.805Z" fill="#1A202C"/>
<path d="M15.941 8.62102C15.4429 8.09436 14.9186 7.59887 14.4444 7.1748C14.1545 7.45946 13.8677 7.7444 13.584 8.02962C14.1029 8.50722 14.5941 9.01398 15.0554 9.54744C15.3625 9.22988 15.6577 8.92107 15.941 8.62102Z" fill="#1A202C"/>
<path d="M9.28798 11.9469C8.86329 11.5822 8.4952 11.2915 8.29364 11.1357C8.11813 11.3818 8.00277 11.5538 7.94922 11.6351C7.96928 11.8479 7.98276 12.0677 7.98965 12.2945C8.09522 12.3759 8.29691 12.537 8.54511 12.7628C8.76334 12.5213 9.01252 12.2472 9.28798 11.9469Z" fill="#1A202C"/>
<path d="M7.99005 12.8164C7.98591 13.01 7.97621 13.2083 7.96094 13.4111C8.0515 13.3096 8.15563 13.1933 8.27225 13.0636C8.1683 12.9691 8.07284 12.8861 7.99005 12.8164Z" fill="#1A202C"/>
<path d="M8.56618 13.3423C8.33021 13.6045 8.1463 13.811 8.02344 13.9496C8.26934 13.911 8.61596 13.8652 9.03153 13.8356C8.87448 13.6558 8.7164 13.4902 8.56618 13.3423Z" fill="#1A202C"/>
<path d="M18.3315 5.99002C17.9257 5.54471 17.4884 5.12915 17.023 4.74658C16.7151 5.02231 16.4054 5.3054 16.0938 5.59583C16.5822 6.02139 17.0405 6.48043 17.4652 6.96963C17.7711 6.62945 18.0599 6.30292 18.3315 5.99002Z" fill="#1A202C"/>
<path d="M20.4139 3.45814C20.1477 3.16745 19.8636 2.89376 19.5631 2.63867C19.2591 2.86598 18.9456 3.11174 18.625 3.37283C18.9959 3.69044 19.3467 4.03079 19.6754 4.39193C19.9441 4.06058 20.1903 3.74932 20.4139 3.45814Z" fill="#1A202C"/>
<path d="M20.6641 3.12939C21.093 2.56028 21.4345 2.07449 21.7049 1.66718C21.6451 1.57835 21.5748 1.49704 21.4956 1.42501C21.4891 1.41904 21.4821 1.41351 21.4754 1.40771C21.0007 1.6467 20.4698 1.98236 19.9004 2.3911C20.1682 2.62309 20.4232 2.86956 20.6641 3.12939Z" fill="#1A202C"/>
<path d="M12.1426 12.4584C11.7052 11.9368 11.2378 11.441 10.7428 10.9736C10.432 11.305 10.139 11.6205 9.86719 11.9149C10.3606 12.3476 10.8253 12.812 11.2584 13.305C11.4972 13.0789 11.7964 12.7933 12.1426 12.4584Z" fill="#1A202C"/>
<path d="M2.63259 19.9391C2.28755 19.6626 2.01458 19.3068 1.83702 18.9019L1.14972 19.6823C1.14449 19.6882 1.14049 19.6951 1.13795 19.7026C1.13541 19.71 1.13437 19.7179 1.1349 19.7258C1.13543 19.7337 1.13752 19.7414 1.14104 19.7484C1.14456 19.7555 1.14945 19.7618 1.15542 19.767L3.65663 21.9349C3.66864 21.9452 3.68418 21.9505 3.69998 21.9495C3.71577 21.9485 3.73057 21.9415 3.74126 21.9298L4.41302 21.1875C3.92085 20.9919 3.47093 20.7034 3.08782 20.3378C2.9297 20.1863 2.78069 20.0559 2.63259 19.9391Z" fill="#1A202C"/>
<path d="M18.7578 1.55747C19.0427 1.72831 19.3161 1.91753 19.5763 2.12394C20.0526 1.77302 20.5508 1.45268 21.0677 1.16486C20.453 0.927219 19.6031 1.06216 18.7578 1.55747Z" fill="#1A202C"/>
<path d="M15.7597 18.6966C15.7635 18.7003 15.7661 18.7029 15.7744 18.6988C15.7828 18.6946 15.7828 18.6904 15.7822 18.6853C15.6211 17.1855 15.01 16.0439 13.9659 15.2925C11.8407 13.7628 8.52 14.2673 7.83637 14.3923C7.45063 16.0893 6.27565 17.6016 5.34487 18.5815C4.78777 19.1679 4.18669 19.711 3.54688 20.2059C4.32375 20.8595 6.04736 21.7831 8.36587 19.9432C11.5192 17.4413 13.2802 16.2496 15.7597 18.6966Z" fill="#1A202C"/>
<path d="M2.21798 16.0638C1.9873 16.7941 1.59028 18.6028 2.88282 19.6216C3.00142 19.7151 3.12014 19.8164 3.24283 19.9287C3.9092 19.4223 6.89399 17.0178 7.46782 14.1845C7.974 10.785 6.76704 8.57655 6.12277 7.67627C6.19532 10.6317 5.05363 11.9792 3.94909 13.2834C3.2497 14.109 2.58908 14.889 2.21798 16.0638Z" fill="#1A202C"/>
<path d="M19.9434 4.7012C20.2594 5.07622 20.5446 5.47621 20.7962 5.89724C21.0201 5.51186 21.2262 5.12584 21.4099 4.74189C21.1877 4.40278 20.9454 4.07726 20.6843 3.76709C20.4588 4.05911 20.2118 4.37048 19.9434 4.7012Z" fill="#1A202C"/>
<path d="M20.9375 3.43708C21.175 3.7153 21.3979 4.0056 21.6054 4.30681C21.9648 3.42895 22.064 2.66842 21.9015 2.09863C21.6409 2.48236 21.3233 2.9274 20.9375 3.43708Z" fill="#1A202C"/>
<path d="M5.27646 10.5561C5.58643 9.76995 5.76414 8.81082 5.71472 7.53118C5.7119 7.45585 5.73315 7.38159 5.7754 7.31916C5.81765 7.25673 5.87869 7.20939 5.94966 7.184C6.02064 7.15862 6.09786 7.15651 6.17011 7.17798C6.24237 7.19946 6.3059 7.2434 6.35149 7.30343C6.78305 7.87259 7.57229 9.13175 7.87313 11.0301C8.05677 10.7687 8.32379 10.4012 8.67135 9.95503C8.63181 8.64744 8.26916 7.52112 7.59129 6.60736C7.03875 5.86251 6.27548 5.25292 5.32273 4.79548C4.2128 4.26266 3.10225 4.06222 2.49805 3.98828C5.2187 7.44053 5.12831 9.80391 5.04889 10.4007C5.12445 10.4501 5.20031 10.5019 5.27646 10.5561Z" fill="#1A202C"/>
<path d="M18.8672 5.98761C19.2764 6.4784 19.5911 6.96206 19.8114 7.43859C20.0735 7.06125 20.3244 6.67914 20.5594 6.29546C20.3067 5.84481 20.0127 5.4185 19.6814 5.02197C19.4288 5.32792 19.1574 5.6498 18.8672 5.98761Z" fill="#1A202C"/>
<path d="M18.9569 13.1917C18.337 12.5786 17.5915 12.1074 16.7717 11.8105C15.4555 13.2323 14.302 14.3108 13.8438 14.7292C13.9055 14.7659 13.9665 14.804 14.0268 14.8436C14.4616 14.6938 16.1858 14.1934 17.787 15.0384C18.9685 15.6617 19.7914 16.8653 20.236 18.6182C20.5027 17.4154 20.5007 16.3198 20.2296 15.3578C19.9992 14.5381 19.5608 13.7919 18.9569 13.1917Z" fill="#1A202C"/>
<path d="M3.47253 13.2223C3.52901 13.1552 3.58541 13.0885 3.64171 13.022C4.18913 12.3757 4.72127 11.7462 5.11065 10.9351C4.11339 10.2084 3.19752 9.92737 2.38637 10.1002C1.72682 10.2407 1.27325 10.6603 1.02344 10.9595C1.76685 10.9542 2.35694 11.1656 2.78141 11.5893C3.27461 12.0816 3.42941 12.7495 3.47253 13.2223Z" fill="#1A202C"/>
<path d="M13.248 5.63945C13.4841 5.82516 13.9157 6.17231 14.4289 6.61965C14.7883 6.26926 15.1378 5.93384 15.4774 5.6134C15.0942 5.29859 14.689 5.01137 14.2651 4.75391C13.91 5.05183 13.571 5.34701 13.248 5.63945Z" fill="#1A202C"/>
<path d="M15.9375 3.43292C16.1751 3.5905 16.5609 3.85806 17.0075 4.21218C17.3446 3.91411 17.6694 3.63465 17.982 3.3738C17.6686 3.12338 17.3422 2.88973 17.0042 2.67383C16.6375 2.92422 16.2819 3.17725 15.9375 3.43292Z" fill="#1A202C"/>
<path d="M14.5957 4.47988C15.0083 4.73712 15.4036 5.02126 15.7789 5.33043C16.095 5.0355 16.4023 4.75414 16.7006 4.48635C16.2035 4.09553 15.788 3.81652 15.5942 3.69092C15.249 3.95353 14.9162 4.21652 14.5957 4.47988Z" fill="#1A202C"/>
<path d="M18.3048 3.10711C18.6291 2.84225 18.9395 2.5983 19.2361 2.37524C18.9595 2.15975 18.6663 1.96636 18.3594 1.79688C18.0219 2.00328 17.6925 2.21323 17.3711 2.42672C17.589 2.56899 17.9199 2.798 18.3048 3.10711Z" fill="#1A202C"/>
<path d="M9.58789 9.45745C9.81048 9.62366 10.2215 9.94431 10.7249 10.3994C11.0523 10.0519 11.3965 9.68965 11.7536 9.31828C11.2123 8.84045 10.7656 8.50277 10.5479 8.34424C10.193 8.73901 9.87287 9.11263 9.58789 9.45745Z" fill="#1A202C"/>
<path d="M8.53125 10.808C8.73789 10.9668 9.1204 11.2674 9.56284 11.6476C9.83686 11.3504 10.1325 11.0319 10.4459 10.6975C9.94557 10.2445 9.54033 9.92781 9.33243 9.77148C9.01214 10.1686 8.74445 10.5191 8.53125 10.808Z" fill="#1A202C"/>
<path d="M12.0449 6.77699C12.4744 7.08114 12.887 7.4083 13.2811 7.75705C13.5726 7.46407 13.8583 7.17982 14.1384 6.9043C13.5991 6.43464 13.1574 6.08191 12.9457 5.91602C12.628 6.20977 12.3277 6.49677 12.0449 6.77699Z" fill="#1A202C"/>
<path d="M10.8223 8.04223C11.063 8.21742 11.5073 8.55434 12.0383 9.02283C12.2859 8.76689 12.5384 8.50801 12.7958 8.24617C12.8614 8.17951 12.9261 8.11437 12.991 8.04852C12.5964 7.69921 12.1828 7.37183 11.7522 7.06787C11.4142 7.40955 11.1038 7.73608 10.8223 8.04223Z" fill="#1A202C"/>
</svg>
