<svg width="28" height="28" viewBox="0 0 28 28" fill="none" xmlns="http://www.w3.org/2000/svg">
<path d="M22.4584 9.33325L25.4334 5.36659C25.5631 5.19317 25.642 4.98711 25.6613 4.77144C25.6805 4.55576 25.6395 4.33896 25.5426 4.14529C25.4458 3.95161 25.297 3.78868 25.1129 3.67471C24.9288 3.56074 24.7166 3.50022 24.5 3.49992H10.5C10.5 3.1905 10.3771 2.89375 10.1583 2.67496C9.93954 2.45617 9.64279 2.33325 9.33337 2.33325C9.02396 2.33325 8.72721 2.45617 8.50842 2.67496C8.28962 2.89375 8.16671 3.1905 8.16671 3.49992V23.3333H7.00004C6.69062 23.3333 6.39388 23.4562 6.17508 23.675C5.95629 23.8938 5.83337 24.1905 5.83337 24.4999C5.83337 24.8093 5.95629 25.1061 6.17508 25.3249C6.39388 25.5437 6.69062 25.6666 7.00004 25.6666H11.6667C11.9761 25.6666 12.2729 25.5437 12.4917 25.3249C12.7105 25.1061 12.8334 24.8093 12.8334 24.4999C12.8334 24.1905 12.7105 23.8938 12.4917 23.675C12.2729 23.4562 11.9761 23.3333 11.6667 23.3333H10.5V15.1666H24.5C24.7166 15.1663 24.9288 15.1058 25.1129 14.9918C25.297 14.8778 25.4458 14.7149 25.5426 14.5212C25.6395 14.3275 25.6805 14.1107 25.6613 13.8951C25.642 13.6794 25.5631 13.4733 25.4334 13.2999L22.4584 9.33325Z" fill="white"/>
</svg>
