<svg width="30" height="30" viewBox="0 0 30 30" fill="none" xmlns="http://www.w3.org/2000/svg">
<path d="M7.38281 12.3633C4.63658 12.3633 2.40234 10.129 2.40234 7.38281C2.40234 4.63658 4.63658 2.40234 7.38281 2.40234C10.129 2.40234 12.3633 4.63658 12.3633 7.38281C12.3633 10.129 10.129 12.3633 7.38281 12.3633Z" fill="white"/>
<path d="M22.6172 12.3633C19.871 12.3633 17.6367 10.129 17.6367 7.38281C17.6367 4.63658 19.871 2.40234 22.6172 2.40234C25.3634 2.40234 27.5977 4.63658 27.5977 7.38281C27.5977 10.129 25.3634 12.3633 22.6172 12.3633Z" fill="white"/>
<path d="M23.8477 16.6113C23.8477 15.4715 24.2998 14.4359 25.033 13.6721C24.2826 13.9615 23.4683 14.1211 22.6172 14.1211C20.5793 14.1211 18.7499 13.2116 17.5133 11.7773H12.5513C14.5731 13.3318 15.8789 15.7739 15.8789 18.5156V27.5977H24.3751V22.9102C24.3751 22.4248 24.7686 22.0312 25.254 22.0312C25.7394 22.0312 26.1329 22.4248 26.1329 22.9102V27.5977H28.4766C28.962 27.5977 29.3555 27.2041 29.3555 26.7188V20.8594H28.0957C25.7533 20.8594 23.8477 18.9537 23.8477 16.6113Z" fill="white"/>
<path d="M29.3548 20.8495V20.8484C29.3507 20.8487 29.351 20.8491 29.3548 20.8495Z" fill="white"/>
<path d="M29.1211 19.1016H28.0957C26.7226 19.1016 25.6055 17.9845 25.6055 16.6113C25.6055 15.2382 26.7226 14.1211 28.0957 14.1211C29.1457 14.1211 30 14.9754 30 16.0254V18.2227C30 18.708 29.6065 19.1016 29.1211 19.1016Z" fill="white"/>
<path d="M11.1756 12.9492C10.0945 13.6882 8.7883 14.121 7.38281 14.121C6.53174 14.121 5.71752 13.9615 4.96717 13.6723C5.70029 14.436 6.15234 15.4715 6.15234 16.6113C6.15234 18.9537 4.2467 20.8593 1.9043 20.8593H0.644531V26.7187C0.644531 27.2041 1.03805 27.5976 1.52344 27.5976H3.86725V22.9101C3.86725 22.4247 4.26076 22.0312 4.74615 22.0312C5.23154 22.0312 5.62506 22.4247 5.62506 22.9101V27.5976H14.1211V18.5156C14.1211 16.2056 12.9524 14.1638 11.1756 12.9492Z" fill="white"/>
<path d="M0.644531 20.8484V20.8498C0.649708 20.8493 0.650113 20.8488 0.644531 20.8484Z" fill="white"/>
<path d="M0 18.2227V16.0254C0 14.9754 0.854297 14.1211 1.9043 14.1211C3.27744 14.1211 4.39453 15.2382 4.39453 16.6113C4.39453 17.9845 3.27744 19.1016 1.9043 19.1016H0.878906C0.393516 19.1016 0 18.708 0 18.2227Z" fill="white"/>
</svg>
