<svg width="80" height="80" viewBox="0 0 80 80" fill="none" xmlns="http://www.w3.org/2000/svg">
<g clip-path="url(#clip0_1317_1583)">
<path d="M22.6261 34.6554C22.8363 35.3763 23.1281 36.0715 23.4971 36.7237L22.4458 38.0496C22.1026 38.483 22.1412 39.1009 22.5274 39.4914L24.3382 41.3022C24.7287 41.6927 25.3466 41.727 25.78 41.3837L27.0973 40.341C27.7753 40.7315 28.4962 41.0362 29.2471 41.2507L29.4445 42.9457C29.5089 43.4949 29.9723 43.9069 30.5215 43.9069H33.0833C33.6325 43.9069 34.096 43.4949 34.1603 42.9457L34.3491 41.3108C35.1558 41.1005 35.9282 40.7873 36.6534 40.3796L37.9278 41.388C38.3612 41.7313 38.9791 41.6927 39.3696 41.3065L41.1804 39.4957C41.5709 39.1052 41.6052 38.4873 41.262 38.0539L40.2707 36.7966C40.6827 36.0843 41.0045 35.3248 41.2191 34.531L42.7467 34.355C43.296 34.2907 43.7078 33.8272 43.7078 33.278V30.7162C43.7078 30.167 43.2959 29.7036 42.7467 29.6392L41.2405 29.4633C41.0345 28.678 40.7256 27.9271 40.3309 27.2234L41.2577 26.0519C41.601 25.6185 41.5624 25.0006 41.1762 24.6101L39.3697 22.8036C38.9792 22.4131 38.3613 22.3788 37.9279 22.7221L36.7908 23.6232C36.0527 23.1898 35.2631 22.8594 34.435 22.6363L34.2634 21.1644C34.199 20.6152 33.7356 20.2032 33.1863 20.2032H30.6246C30.0753 20.2032 29.6119 20.6152 29.5475 21.1644L29.3759 22.6363C28.5263 22.8637 27.7153 23.207 26.96 23.6575L25.78 22.7221C25.3466 22.3788 24.7287 22.4174 24.3382 22.8036L22.5274 24.6144C22.1369 25.0049 22.1026 25.6228 22.4459 26.0562L23.4328 27.3049C23.038 28.0172 22.7377 28.7767 22.5403 29.5663L20.9612 29.7465C20.4119 29.8108 20 30.2743 20 30.8235V33.3853C20 33.9345 20.4119 34.3979 20.9612 34.4623L22.6261 34.6554ZM31.9075 27.7255C34.2419 27.7255 36.1428 29.6264 36.1428 31.9607C36.1428 34.295 34.2419 36.1959 31.9075 36.1959C29.5733 36.1959 27.6723 34.295 27.6723 31.9607C27.6723 29.6264 29.5732 27.7255 31.9075 27.7255Z" fill="#F50A45"/>
<path d="M57.2333 35.2862L55.8816 34.1448C55.4654 33.7929 54.8518 33.8101 54.457 34.1834L53.7104 34.8829C53.0796 34.5782 52.4102 34.3637 51.7193 34.2392L51.5092 33.2094C51.4019 32.6773 50.9084 32.3083 50.3677 32.3512L48.6041 32.5014C48.0634 32.5486 47.6386 32.9905 47.6214 33.5355L47.5871 34.5825C46.9091 34.8271 46.2698 35.1618 45.6862 35.5823L44.7937 34.9901C44.3388 34.6898 43.7338 34.7756 43.3819 35.1918L42.2405 36.5521C41.8886 36.9683 41.9058 37.5819 42.2791 37.9767L43.0601 38.8091C42.7897 39.4184 42.5966 40.0578 42.4851 40.7143L41.3694 40.9417C40.8373 41.049 40.4683 41.5425 40.5112 42.0832L40.6614 43.8468C40.7086 44.3875 41.1506 44.8123 41.6955 44.8295L42.9013 44.868C43.1202 45.443 43.4077 45.988 43.7552 46.4986L43.0816 47.5156C42.7812 47.9704 42.867 48.5755 43.2832 48.9273L44.6349 50.0688C45.0511 50.4206 45.6647 50.4035 46.0595 50.0301L46.9435 49.202C47.5228 49.4723 48.1321 49.674 48.7585 49.7941L49.0032 51.0042C49.1105 51.5363 49.6039 51.9053 50.1446 51.8624L51.9082 51.7122C52.4489 51.665 52.8737 51.2231 52.8908 50.6781L52.9295 49.4937C53.5731 49.2663 54.1824 48.9573 54.7445 48.5755L55.7186 49.2191C56.1735 49.5195 56.7785 49.4337 57.1304 49.0175L58.2718 47.6658C58.6236 47.2496 58.6064 46.6359 58.2332 46.2412L57.4479 45.4087C57.7354 44.7994 57.9457 44.1558 58.0658 43.4949L59.1385 43.2761C59.6706 43.1688 60.0396 42.6753 59.9967 42.1346L59.8465 40.371C59.7993 39.8303 59.3574 39.4055 58.8124 39.3884L57.7354 39.354C57.5122 38.7275 57.2118 38.1354 56.8385 37.5861L57.4264 36.7022C57.7354 36.2474 57.6495 35.6381 57.2333 35.2862ZM50.5866 45.4816C48.6813 45.6448 46.9992 44.2244 46.8405 42.3192C46.6774 40.414 48.0978 38.7319 50.0029 38.5731C51.9081 38.41 53.5903 39.8304 53.749 41.7356C53.9121 43.6408 52.4917 45.3229 50.5866 45.4816Z" fill="#F50A45"/>
<path d="M28.7965 50.2275C28.2558 50.2833 27.8396 50.7381 27.8353 51.2831L27.8224 52.3688C27.8138 52.9137 28.2172 53.3771 28.7578 53.4458L29.556 53.5488C29.689 54.0337 29.8778 54.4971 30.1224 54.9348L29.6075 55.5699C29.2642 55.9947 29.2899 56.604 29.6718 56.9945L30.4313 57.7712C30.8132 58.1617 31.4226 58.2046 31.856 57.8699L32.4953 57.3764C32.9458 57.6425 33.4222 57.8528 33.9199 57.9986L34.0057 58.8225C34.0615 59.3632 34.5163 59.7794 35.0613 59.7837L36.147 59.7966C36.6919 59.8051 37.1554 59.4018 37.224 58.8611L37.3227 58.0802C37.8634 57.9471 38.3784 57.7455 38.8675 57.4794L39.4682 57.9643C39.893 58.3076 40.5024 58.2818 40.8929 57.8999L41.6696 57.1404C42.0601 56.7586 42.103 56.1492 41.7683 55.7158L41.3091 55.1193C41.5923 54.6473 41.8112 54.1452 41.9614 53.6174L42.6737 53.5445C43.2143 53.4887 43.6305 53.0339 43.6349 52.4889L43.6477 51.4032C43.6563 50.8583 43.253 50.3948 42.7123 50.3262L42.0171 50.2361C41.8841 49.7126 41.6867 49.2062 41.4293 48.7342L41.8627 48.2021C42.2059 47.7773 42.1802 47.168 41.7983 46.7775L41.0388 46.0008C40.6569 45.6103 40.0475 45.5674 39.6142 45.9021L39.0949 46.3012C38.6058 46.0051 38.0822 45.7777 37.533 45.6232L37.4643 44.9495C37.4085 44.4088 36.9537 43.9926 36.4087 43.9883L35.3231 43.9755C34.7781 43.9669 34.3147 44.3702 34.246 44.9109L34.1602 45.5804C33.5938 45.7262 33.0489 45.9494 32.5425 46.2411L32.0061 45.8035C31.5813 45.4602 30.972 45.486 30.5815 45.8678L29.8005 46.6317C29.41 47.0135 29.3671 47.6229 29.7018 48.0562L30.161 48.6484C29.8949 49.1205 29.6847 49.6225 29.5473 50.1503L28.7965 50.2275ZM35.8037 49.0003C37.3613 49.0174 38.61 50.3005 38.5929 51.8581C38.5757 53.4158 37.2926 54.6644 35.735 54.6473C34.1774 54.6301 32.9287 53.3471 32.9458 51.7894C32.963 50.2318 34.2461 48.9831 35.8037 49.0003Z" fill="#F50A45"/>
</g>
<circle cx="40" cy="40" r="39" stroke="#F50A45" stroke-width="2"/>
<defs>
<clipPath id="clip0_1317_1583">
<rect width="40" height="40" fill="white" transform="translate(20 20)"/>
</clipPath>
</defs>
</svg>
