<svg width="24" height="25" viewBox="0 0 24 25" fill="none" xmlns="http://www.w3.org/2000/svg">
<g clip-path="url(#clip0_1330_412)">
<path d="M23.7068 22.5567L16.8818 15.7318C18.2038 14.0988 18.9998 12.0238 18.9998 9.76384C18.9998 4.52589 14.7378 0.263916 9.49988 0.263916C4.26193 0.263916 0 4.52584 0 9.76379C0 15.0017 4.26197 19.2637 9.49992 19.2637C11.7599 19.2637 13.8349 18.4677 15.4679 17.1457L22.2928 23.9707C22.4878 24.1657 22.7438 24.2637 22.9998 24.2637C23.2558 24.2637 23.5118 24.1657 23.7068 23.9707C24.0978 23.5797 24.0978 22.9477 23.7068 22.5567ZM9.49992 17.2637C5.36395 17.2637 2 13.8998 2 9.76379C2 5.62782 5.36395 2.26387 9.49992 2.26387C13.6359 2.26387 16.9999 5.62782 16.9999 9.76379C16.9999 13.8998 13.6359 17.2637 9.49992 17.2637Z" fill="white"/>
</g>
<defs>
<clipPath id="clip0_1330_412">
<rect width="24" height="24" fill="white" transform="translate(0 0.263428)"/>
</clipPath>
</defs>
</svg>
