<svg width="26" height="26" viewBox="0 0 26 26" fill="none" xmlns="http://www.w3.org/2000/svg">
<path d="M23.5625 6.5H2.4375C1.54009 6.5 0.8125 5.77241 0.8125 4.875C0.8125 3.97759 1.54009 3.25 2.4375 3.25H23.5625C24.4599 3.25 25.1875 3.97759 25.1875 4.875C25.1875 5.77241 24.4599 6.5 23.5625 6.5Z" fill="white"/>
<path d="M23.5625 22.75H2.4375C1.54009 22.75 0.8125 22.0224 0.8125 21.125C0.8125 20.2276 1.54009 19.5 2.4375 19.5H23.5625C24.4599 19.5 25.1875 20.2276 25.1875 21.125C25.1875 22.0224 24.4599 22.75 23.5625 22.75Z" fill="white"/>
<path d="M23.5625 14.625H2.4375C1.54009 14.625 0.8125 13.8974 0.8125 13C0.8125 12.1026 1.54009 11.375 2.4375 11.375H23.5625C24.4599 11.375 25.1875 12.1026 25.1875 13C25.1875 13.8974 24.4599 14.625 23.5625 14.625Z" fill="white"/>
</svg>
