<svg width="34" height="34" viewBox="0 0 34 34" fill="none" xmlns="http://www.w3.org/2000/svg">
<path d="M20.6116 9.66406H13.396C11.3409 9.66406 9.66357 11.3338 9.66357 13.3965V20.6121C9.66357 22.6672 11.3334 24.3445 13.396 24.3445H20.6116C22.6667 24.3445 24.344 22.6747 24.344 20.6121V13.3965C24.3365 11.3338 22.6667 9.66406 20.6116 9.66406ZM17 21.8285C14.3405 21.8285 12.172 19.6601 12.172 17.0005C12.172 14.341 14.3405 12.1725 17 12.1725C19.6596 12.1725 21.828 14.341 21.828 17.0005C21.828 19.6601 19.6596 21.8285 17 21.8285ZM22.0698 12.709C21.6165 12.709 21.2538 12.3463 21.2538 11.893C21.2538 11.4396 21.6165 11.077 22.0698 11.077C22.5231 11.077 22.8858 11.4396 22.8858 11.893C22.8858 12.3463 22.5231 12.709 22.0698 12.709Z" fill="white"/>
<path d="M19.9349 17.0343C19.9543 15.4153 18.6576 14.087 17.0385 14.0676C15.4195 14.0481 14.0912 15.3449 14.0718 16.964C14.0524 18.583 15.3491 19.9113 16.9682 19.9307C18.5872 19.9501 19.9155 18.6534 19.9349 17.0343Z" fill="white"/>
<path d="M17 0C7.60844 0 0 7.60844 0 17C0 26.3916 7.60844 34 17 34C26.3916 34 34 26.3916 34 17C34 7.60844 26.3916 0 17 0ZM26.4444 20.6116C26.4444 23.8302 23.8302 26.4444 20.6116 26.4444H13.396C10.1773 26.4444 7.56311 23.8302 7.56311 20.6116V13.396C7.56311 10.1773 10.1773 7.56311 13.396 7.56311H20.6116C23.8302 7.56311 26.4444 10.1773 26.4444 13.396V20.6116Z" fill="white"/>
</svg>
