<svg width="34" height="34" viewBox="0 0 34 34" fill="none" xmlns="http://www.w3.org/2000/svg">
<g clip-path="url(#clip0_1137_4165)">
<path d="M34.0008 17C34.0008 26.3885 26.3893 34 17 34H16.9682C7.59391 33.9824 0 26.3759 0 17C0 7.62407 7.59391 0.0167562 16.9682 0H17C26.3893 0 34.0008 7.60899 34.0008 17Z" fill="white"/>
<path d="M16.9682 0V34C7.59391 33.9824 0 26.3759 0 17C0 7.62407 7.59391 0.0167562 16.9682 0Z" fill="white"/>
<path d="M26.2503 12.2944L26.2294 15.7772C25.5507 15.7689 24.8755 15.6783 24.2187 15.5074C23.2053 15.2427 22.2495 14.7931 21.3994 14.1812C21.3994 14.5373 21.4045 15.0684 21.4045 15.7144C21.4045 16.574 21.4045 17.0624 21.3994 17.581C21.3843 20.7848 21.4639 21.4048 21.1824 22.6716C21.1239 22.977 21.0438 23.278 20.9428 23.5722C20.4016 25.0803 19.222 26.2884 18.0197 26.931C17.6842 27.1093 17.332 27.2544 16.9682 27.3641C14.6961 28.0528 11.9657 27.4479 10.5565 25.7723L10.5473 25.7622L10.5364 25.748C9.33915 24.3036 9.07775 22.0516 9.05262 21.4752C9.05262 21.4014 9.04759 21.3294 9.04759 21.3294C9.02915 20.542 9.14242 19.757 9.38272 19.007C9.62568 18.2312 10.4258 16.6117 12.2229 15.6281C13.3437 15.0243 14.6229 14.7795 15.8875 14.9268L15.8464 18.4515C15.7752 18.4331 14.0535 18.0251 12.9233 19.198C11.8995 20.2603 11.9657 21.972 12.6921 22.9413C12.7306 22.9933 12.7717 23.0435 12.8144 23.0905C13.2207 23.5437 13.736 23.7138 14.0837 23.8328C14.5447 23.9847 15.0286 24.0555 15.5138 24.0422C16.0336 24.0341 16.5393 23.8717 16.9666 23.5756C18.1479 22.7729 18.3071 21.3436 18.3129 21.2624C18.2984 16.6611 18.2847 12.0599 18.2719 7.45861V7.45442L20.4862 7.41504H20.5222L20.8431 7.40918C21.0797 8.26069 21.4808 9.05763 22.0236 9.75505C22.1946 9.97318 22.3793 10.1803 22.5765 10.375C23.3217 11.1003 24.2169 11.6534 25.1989 11.9954H25.2056C25.5463 12.1198 25.8954 12.2198 26.2503 12.2944Z" fill="#FD2854"/>
<path d="M25.26 14.8546C23.5337 14.918 21.8387 14.3812 20.4636 13.3357V20.7084C20.4468 20.9908 20.1997 24.1049 17.3863 25.8191C17.2472 25.9028 17.1073 25.9808 16.9674 26.0528C14.3208 27.4034 11.7344 26.3452 11.4789 26.2355C11.2248 26.1524 10.9813 26.0399 10.7534 25.9003C10.6821 25.8559 10.6126 25.8098 10.5464 25.7621L10.4869 25.7177C8.76105 24.4074 8.68983 21.7381 8.67894 21.3443C8.6605 20.5569 8.77377 19.772 9.01406 19.0219C9.29892 18.1129 10.1493 16.5805 11.8542 15.643C12.795 15.1311 13.8522 14.8713 14.9231 14.889V14.8949C14.9092 15.7801 14.8952 16.6657 14.8812 17.5516C14.7011 17.503 13.5969 17.2248 12.5178 17.9043C11.8472 18.3359 11.3725 19.0133 11.1957 19.791C11.0899 20.1684 11.0671 20.5643 11.1287 20.9514C11.2244 21.4294 11.4499 21.8717 11.7805 22.2299C11.9195 22.39 12.0748 22.5351 12.2438 22.663C12.2502 22.6685 12.2569 22.6736 12.2639 22.6781C12.3967 22.7805 12.5389 22.87 12.6887 22.9454L12.6937 22.9496C12.9931 23.4017 13.425 23.7501 13.9301 23.9472C14.4353 24.1443 14.989 24.1803 15.5155 24.0504C15.7607 23.9993 15.999 23.9188 16.2251 23.8108C16.4989 23.6806 16.7499 23.5069 16.9682 23.2964C17.8161 22.4812 17.9401 21.3535 17.946 21.2857L17.9091 7.47103L18.2777 7.46349L20.4921 7.41992H20.5239C20.5323 7.4417 20.5415 7.46349 20.5507 7.48527C20.6018 7.60843 20.663 7.74499 20.7342 7.89245L20.7819 7.98879V7.99634C20.7812 7.9985 20.7812 8.00087 20.7819 8.00304L20.7895 8.01896L20.797 8.03404C20.8016 8.04378 20.8066 8.05329 20.8121 8.06252C20.8171 8.07341 20.823 8.08431 20.8289 8.0952C20.8674 8.1706 20.9126 8.24852 20.9537 8.32727C20.9847 8.3834 21.0174 8.43954 21.0509 8.49483L21.0869 8.55432L21.1414 8.64396L21.2084 8.75036C21.5916 9.34975 22.0509 9.89693 22.5749 10.3782C23.3394 11.0782 24.2291 11.6279 25.1972 11.9986H25.2039C25.2148 12.6194 25.2257 13.2419 25.2357 13.8627L25.26 14.8546Z" fill="#F52257"/>
<path opacity="0.17" d="M26.2504 12.294L26.2294 15.7767C25.5507 15.7684 24.8755 15.6779 24.2187 15.507C23.2053 15.2422 22.2495 14.7926 21.3994 14.1807C21.3994 14.5368 21.4045 15.068 21.4045 15.7139C21.4045 16.5735 21.4045 17.0619 21.3994 17.5805C21.3844 20.7843 21.4639 21.4043 21.1824 22.6711C21.1239 22.9766 21.0438 23.2775 20.9428 23.5717C20.4016 25.0798 19.222 26.2879 18.0197 26.9305C17.6842 27.1089 17.332 27.2539 16.9683 27.3637V6.57089L20.3882 6.55078C20.3857 6.81755 20.4227 7.08321 20.498 7.33916C20.5063 7.36681 20.5147 7.39278 20.5239 7.42294L20.8448 7.41708C21.0814 8.26858 21.4825 9.06553 22.0253 9.76294C22.1963 9.98108 22.381 10.1882 22.5782 10.3829C23.4898 11.1185 24.537 11.3263 25.1939 11.3883C25.1981 11.5944 25.2031 11.8005 25.2073 12.0066C25.5477 12.127 25.8963 12.2231 26.2504 12.294Z" fill="#F52257"/>
</g>
<defs>
<clipPath id="clip0_1137_4165">
<rect width="34" height="34" fill="white"/>
</clipPath>
</defs>
</svg>
