<svg width="39" height="39" viewBox="0 0 39 39" fill="none" xmlns="http://www.w3.org/2000/svg">
<g clip-path="url(#clip0_1315_905)">
<mask id="mask0_1315_905" style="mask-type:luminance" maskUnits="userSpaceOnUse" x="0" y="0" width="39" height="39">
<path d="M0 7.62939e-06H39V39H0V7.62939e-06Z" fill="white"/>
</mask>
<g mask="url(#mask0_1315_905)">
<path d="M37.857 1.14251V2.57682C37.857 4.79259 36.9765 6.91839 35.4094 8.48547H35.4087C33.8416 10.0526 31.7164 10.9331 29.5001 10.9331H28.0664V9.49879C28.0664 7.28303 28.9463 5.1573 30.5134 3.59014H30.514C32.0811 2.02305 34.2063 1.14251 36.4226 1.14251H37.857Z" stroke="#F50A45" stroke-width="1.5" stroke-miterlimit="10" stroke-linecap="round" stroke-linejoin="round"/>
<path d="M1.14258 37.8574L9.7094 29.2906" stroke="#F50A45" stroke-width="1.5" stroke-miterlimit="10" stroke-linecap="round" stroke-linejoin="round"/>
<path d="M28.0676 7.87341C28.0676 9.83278 27.2892 11.7113 25.9038 13.0961C25.1078 13.8927 24.3961 14.6045 24.3961 14.6045C24.3961 14.6045 23.6844 13.8927 22.8877 13.0961C21.5023 11.7113 20.7246 9.83278 20.7246 7.87341C20.7246 5.91404 21.5023 4.03549 22.8877 2.65076L24.3961 1.14233C24.3961 1.14233 25.1078 1.85401 25.9038 2.65076C27.2892 4.03549 28.0676 5.91404 28.0676 7.87341Z" stroke="#F50A45" stroke-width="1.5" stroke-miterlimit="10" stroke-linecap="round" stroke-linejoin="round"/>
<path d="M20.7238 15.2167C20.7238 17.176 19.9454 19.0546 18.5601 20.4393C17.7639 21.2361 17.0523 21.9478 17.0523 21.9478L15.544 20.4393C14.1586 19.0546 13.3809 17.176 13.3809 15.2167C13.3809 13.2573 14.1586 11.3788 15.544 9.99403C16.3407 9.19735 17.0523 8.4856 17.0523 8.4856C17.0523 8.4856 17.7639 9.19735 18.5601 9.99403C19.9454 11.3788 20.7238 13.2573 20.7238 15.2167Z" stroke="#F50A45" stroke-width="1.5" stroke-miterlimit="10" stroke-linecap="round" stroke-linejoin="round"/>
<path d="M13.3801 22.5594C13.3801 24.5188 12.6018 26.3974 11.2163 27.7821C10.4203 28.5789 9.70859 29.2905 9.70859 29.2905C9.70859 29.2905 8.99692 28.5789 8.20024 27.7821C6.8149 26.3974 6.03711 24.5188 6.03711 22.5594C6.03711 20.6001 6.8149 18.7215 8.20024 17.3368L9.70859 15.8284C9.70859 15.8284 10.4203 16.5401 11.2163 17.3368C12.6018 18.7215 13.3801 20.6001 13.3801 22.5594Z" stroke="#F50A45" stroke-width="1.5" stroke-miterlimit="10" stroke-linecap="round" stroke-linejoin="round"/>
<path d="M31.1249 18.2764C29.1662 18.2764 27.2876 17.498 25.9023 16.1133C25.1061 15.3166 24.3945 14.6049 24.3945 14.6049C24.3945 14.6049 25.1061 13.8932 25.9023 13.0965C27.2876 11.7117 29.1662 10.9334 31.1249 10.9334H31.1255C33.0843 10.9334 34.9628 11.7117 36.3483 13.0965C37.1449 13.8932 37.8566 14.6049 37.8566 14.6049L36.3483 16.1133C34.9628 17.498 33.0843 18.2764 31.1255 18.2764H31.1249Z" stroke="#F50A45" stroke-width="1.5" stroke-miterlimit="10" stroke-linecap="round" stroke-linejoin="round"/>
<path d="M23.7831 25.6191C21.8244 25.6191 19.9458 24.8408 18.5605 23.456C17.7643 22.6593 17.0527 21.9477 17.0527 21.9477C17.0527 21.9477 17.7643 21.236 18.5605 20.4393C19.9458 19.0545 21.8244 18.2762 23.7831 18.2762H23.7837C25.7425 18.2762 27.621 19.0545 29.0065 20.4393C29.8031 21.236 30.5148 21.9477 30.5148 21.9477C30.5148 21.9477 29.8031 22.6593 29.0065 23.456C27.621 24.8408 25.7425 25.6191 23.7837 25.6191H23.7831Z" stroke="#F50A45" stroke-width="1.5" stroke-miterlimit="10" stroke-linecap="round" stroke-linejoin="round"/>
<path d="M16.4394 32.9619C14.4806 32.9619 12.6021 32.1836 11.2167 30.7989C10.4206 30.0021 9.70898 29.2904 9.70898 29.2904C9.70898 29.2904 10.4206 28.5788 11.2167 27.7821C12.6021 26.3973 14.4806 25.6189 16.4394 25.6189H16.44C18.3987 25.6189 20.2773 26.3973 21.6626 27.7821C22.4594 28.5788 23.1711 29.2904 23.1711 29.2904L21.6626 30.7989C20.2773 32.1836 18.3987 32.9619 16.44 32.9619H16.4394Z" stroke="#F50A45" stroke-width="1.5" stroke-miterlimit="10" stroke-linecap="round" stroke-linejoin="round"/>
</g>
</g>
<defs>
<clipPath id="clip0_1315_905">
<rect width="39" height="39" fill="white"/>
</clipPath>
</defs>
</svg>
