<svg width="22" height="22" viewBox="0 0 22 22" fill="none" xmlns="http://www.w3.org/2000/svg">
<g clip-path="url(#clip0_1315_496)">
<path d="M9.13575 0.168175C8.88576 -0.0565947 8.50836 -0.0568096 8.2585 0.168132C7.4836 0.865815 6.26793 2.02155 5.01131 3.45713C2.28155 6.57572 0.592574 9.59707 0.126964 12.1947C-0.290434 14.5233 0.329046 16.8287 1.87137 18.6859C3.56859 20.7298 6.1844 21.9995 8.69798 21.9995C9.91873 21.9995 11.1869 21.7072 12.3653 21.1542C13.553 20.5967 14.6232 19.7863 15.4602 18.8105C16.2225 17.9218 16.7774 16.9228 17.1095 15.8411C17.4677 14.6747 17.5552 13.441 17.3695 12.1742C16.6625 7.35178 11.2514 2.07066 9.13575 0.168175ZM8.7309 19.7191C5.16423 19.7191 2.2626 16.7915 2.2626 13.1929C2.2626 9.59431 5.16428 6.66664 8.7309 6.66664C12.2975 6.66664 15.1992 9.59431 15.1992 13.1929C15.1992 16.7915 12.2976 19.7191 8.7309 19.7191Z" fill="#1A202C"/>
<path d="M21.937 7.6967C21.4811 4.58714 18.0109 1.26286 16.7753 0.165908C16.5264 -0.0550805 16.1532 -0.0554672 15.9045 0.165736C15.3683 0.642603 14.4119 1.5437 13.4648 2.68611C13.4717 2.69385 13.4786 2.70149 13.4854 2.70927C16.5053 6.12095 18.2405 9.24181 18.6426 11.9852C18.7179 12.4985 18.7527 13.009 18.7489 13.5137C20.7856 12.5531 22.333 10.3981 21.937 7.6967Z" fill="#1A202C"/>
<path d="M8.73131 7.96289C5.87475 7.96289 3.55078 10.3092 3.55078 13.1931C3.55078 16.077 5.87475 18.4232 8.73131 18.4232C11.5879 18.4232 13.9118 16.077 13.9118 13.1931C13.9118 10.3092 11.5879 7.96289 8.73131 7.96289ZM10.9998 14.0239C10.9998 15.2165 10.0297 16.1867 8.83714 16.1867H7.41909C7.06313 16.1867 6.77455 15.8981 6.77455 15.5422V10.6545C6.77455 10.4835 6.84253 10.3195 6.96353 10.1986C7.0844 10.0778 7.24824 10.01 7.41909 10.01H7.41964L8.8389 10.0112C10.0304 10.0121 10.9999 10.9823 10.9999 12.174V14.0239H10.9998Z" fill="#1A202C"/>
<path d="M8.83675 11.3005L8.0625 11.2998V14.8978H8.83602C9.31775 14.8978 9.70966 14.5059 9.70966 14.0241V12.1742C9.70966 11.6928 9.31809 11.3009 8.83675 11.3005Z" fill="#1A202C"/>
</g>
<defs>
<clipPath id="clip0_1315_496">
<rect width="22" height="22" fill="white"/>
</clipPath>
</defs>
</svg>
